<mxfile host="app.diagrams.net" modified="2023-11-13T14:35:59.752Z" agent="Mozilla/5.0 (Macintosh; Intel Mac OS X 10_15_7) AppleWebKit/537.36 (KHTML, like Gecko) Chrome/119.0.0.0 Safari/537.36" etag="yf0rulXs-Fw58sXY7MO3" version="22.1.0" type="github">
  <diagram name="第 1 页" id="z217H29hUgiIfgQ3qIF9">
    <mxGraphModel dx="954" dy="610" grid="0" gridSize="10" guides="1" tooltips="1" connect="1" arrows="1" fold="1" page="1" pageScale="1" pageWidth="1169" pageHeight="827" math="0" shadow="0">
      <root>
        <mxCell id="0" />
        <mxCell id="1" parent="0" />
        <mxCell id="VqVTVvsrM9dygkp-Z4wA-2" value="&lt;font style=&quot;font-size: 21px;&quot;&gt;卖出&lt;br&gt;（手里没股票）&lt;/font&gt;" style="rounded=1;whiteSpace=wrap;html=1;fillColor=default;sketch=1;curveFitting=1;jiggle=2;" vertex="1" parent="1">
          <mxGeometry x="623" y="211" width="170" height="77" as="geometry" />
        </mxCell>
        <mxCell id="VqVTVvsrM9dygkp-Z4wA-3" value="&lt;font style=&quot;font-size: 21px;&quot;&gt;买入&lt;br&gt;（手里有股票）&lt;/font&gt;" style="rounded=1;whiteSpace=wrap;html=1;fillColor=default;sketch=1;curveFitting=1;jiggle=2;" vertex="1" parent="1">
          <mxGeometry x="213" y="211" width="170" height="77" as="geometry" />
        </mxCell>
        <mxCell id="VqVTVvsrM9dygkp-Z4wA-5" value="" style="curved=1;endArrow=classic;html=1;rounded=0;exitX=0.75;exitY=0;exitDx=0;exitDy=0;entryX=0.25;entryY=0;entryDx=0;entryDy=0;strokeWidth=3;" edge="1" parent="1" source="VqVTVvsrM9dygkp-Z4wA-3" target="VqVTVvsrM9dygkp-Z4wA-2">
          <mxGeometry width="50" height="50" relative="1" as="geometry">
            <mxPoint x="320" y="183" as="sourcePoint" />
            <mxPoint x="370" y="133" as="targetPoint" />
            <Array as="points">
              <mxPoint x="370" y="183" />
              <mxPoint x="526" y="104" />
            </Array>
          </mxGeometry>
        </mxCell>
        <mxCell id="VqVTVvsrM9dygkp-Z4wA-6" value="" style="curved=1;endArrow=classic;html=1;rounded=0;exitX=0.5;exitY=1;exitDx=0;exitDy=0;entryX=0.618;entryY=1.006;entryDx=0;entryDy=0;entryPerimeter=0;strokeWidth=3;" edge="1" parent="1">
          <mxGeometry width="50" height="50" relative="1" as="geometry">
            <mxPoint x="698.94" y="288" as="sourcePoint" />
            <mxPoint x="308.99999999999994" y="288.462" as="targetPoint" />
            <Array as="points">
              <mxPoint x="618" y="370" />
              <mxPoint x="487" y="418" />
            </Array>
          </mxGeometry>
        </mxCell>
        <mxCell id="VqVTVvsrM9dygkp-Z4wA-7" value="" style="curved=1;endArrow=classic;html=1;rounded=0;exitX=0.365;exitY=-0.006;exitDx=0;exitDy=0;strokeWidth=3;exitPerimeter=0;entryX=0;entryY=0.5;entryDx=0;entryDy=0;" edge="1" parent="1" source="VqVTVvsrM9dygkp-Z4wA-3" target="VqVTVvsrM9dygkp-Z4wA-3">
          <mxGeometry width="50" height="50" relative="1" as="geometry">
            <mxPoint x="270" y="190" as="sourcePoint" />
            <mxPoint x="141" y="100" as="targetPoint" />
            <Array as="points">
              <mxPoint x="299" y="162" />
              <mxPoint x="191" y="68" />
              <mxPoint x="75" y="211" />
            </Array>
          </mxGeometry>
        </mxCell>
        <mxCell id="VqVTVvsrM9dygkp-Z4wA-9" value="" style="curved=1;endArrow=classic;html=1;rounded=0;exitX=0.75;exitY=0;exitDx=0;exitDy=0;entryX=1.012;entryY=0.617;entryDx=0;entryDy=0;strokeWidth=3;entryPerimeter=0;" edge="1" parent="1" source="VqVTVvsrM9dygkp-Z4wA-2" target="VqVTVvsrM9dygkp-Z4wA-2">
          <mxGeometry width="50" height="50" relative="1" as="geometry">
            <mxPoint x="764" y="201" as="sourcePoint" />
            <mxPoint x="1089" y="201" as="targetPoint" />
            <Array as="points">
              <mxPoint x="793" y="173" />
              <mxPoint x="900" y="141" />
              <mxPoint x="957" y="243" />
            </Array>
          </mxGeometry>
        </mxCell>
        <mxCell id="VqVTVvsrM9dygkp-Z4wA-10" value="&lt;font style=&quot;font-size: 22px;&quot;&gt;啥也不做&lt;/font&gt;" style="text;html=1;align=center;verticalAlign=middle;resizable=0;points=[];autosize=1;strokeColor=none;fillColor=none;" vertex="1" parent="1">
          <mxGeometry x="40" y="100" width="106" height="38" as="geometry" />
        </mxCell>
        <mxCell id="VqVTVvsrM9dygkp-Z4wA-11" value="&lt;font style=&quot;font-size: 22px;&quot;&gt;啥也不做&lt;/font&gt;" style="text;html=1;align=center;verticalAlign=middle;resizable=0;points=[];autosize=1;strokeColor=none;fillColor=none;" vertex="1" parent="1">
          <mxGeometry x="842" y="116" width="106" height="38" as="geometry" />
        </mxCell>
        <mxCell id="VqVTVvsrM9dygkp-Z4wA-12" value="&lt;font style=&quot;font-size: 22px;&quot;&gt;+ prices[i], &lt;font color=&quot;#ff3333&quot;&gt;注意交易次数+1&lt;/font&gt;&lt;/font&gt;" style="text;html=1;align=center;verticalAlign=middle;resizable=0;points=[];autosize=1;strokeColor=none;fillColor=none;" vertex="1" parent="1">
          <mxGeometry x="358" y="81" width="282" height="38" as="geometry" />
        </mxCell>
        <mxCell id="VqVTVvsrM9dygkp-Z4wA-15" value="&lt;font style=&quot;font-size: 22px;&quot;&gt;- prices[i]&lt;/font&gt;" style="text;html=1;align=center;verticalAlign=middle;resizable=0;points=[];autosize=1;strokeColor=none;fillColor=none;" vertex="1" parent="1">
          <mxGeometry x="464" y="414" width="107" height="38" as="geometry" />
        </mxCell>
      </root>
    </mxGraphModel>
  </diagram>
</mxfile>
